<svg width="188" height="24" viewBox="0 0 188 24" xmlns="http://www.w3.org/2000/svg"><title>Logo/International</title><g fill="none" fill-rule="evenodd"><path d="M161.85 23.093h-4.413v-9.26c0-1.702-.822-3.407-2.786-3.407-1.582 0-3.052 1.414-3.052 3.324v9.343h-4.224V7.114h4.23v2.073s.918-2.755 4.58-2.755c3.439 0 5.666 2.249 5.666 5.705v10.956zm16.32.001h4.504V1.534h-4.504v21.56zM121.919 7.106h2.992v3.003h-2.992v8.52c0 .677.22 1.45 1.488 1.45l1.6.003v3.152l-3.474-.004c-2.556 0-3.818-1.856-3.818-3.992v-9.129h-2.288V7.106h2.288V1.832h4.204v5.274zm-21.904 15.987H95.6v-9.26c0-1.702-.822-3.407-2.786-3.407-1.582 0-3.052 1.414-3.052 3.324v9.343H85.54V7.114h4.23v2.073s.917-2.755 4.58-2.755c3.438 0 5.665 2.249 5.665 5.705v10.956zM57.145 7.106h2.992v3.003h-2.993v8.52c0 .677.22 1.45 1.488 1.45l1.6.003v3.152l-3.473-.004c-2.556 0-3.819-1.856-3.819-3.992v-9.129h-2.289V7.106h2.29V1.832h4.203v5.274zm68.436-1.884h4.204V1.318h-4.204v3.904zm0 17.867h4.204V7.114h-4.204v15.975zM75.9 7.12h3.834v1.242l-.003.317c.807-1.147 2.116-1.979 4.13-1.979l1.001-.003v4.043c-.34-.042-.847-.03-1.296-.03-2.544 0-3.557 2.328-3.557 4.068v8.318H75.9V7.119zM50.566 23.093h-4.413v-9.26c0-1.702-.822-3.407-2.787-3.407-1.581 0-3.051 1.414-3.051 3.324v9.343h-4.223V7.114h4.23v2.073s.916-2.755 4.58-2.755c3.438 0 5.664 2.249 5.664 5.705v10.956zm-20.326.001h4.504V1.534H30.24v21.56zm44.81-5.015c-.935 4.27-4.563 5.493-7.405 5.493-4.686 0-8.279-2.206-8.279-8.914 0-1.961.94-8.24 7.966-8.24 3.28 0 7.81 1.785 7.81 8.975v.766H63.74c.125 1.225.533 3.791 3.873 3.791 1.218 0 2.5-.517 2.938-1.87h4.498zm-4.407-4.835c-.25-2.507-1.968-3.304-3.374-3.304-2.062 0-3.154 1.287-3.404 3.304h6.778zm44.628 8.28c0 1.354.546 1.57.546 1.57h-4.489c-.331-.592-.333-1.214-.323-1.226-.692.916-2.353 1.774-5.177 1.774-3.047 0-5.254-1.742-5.254-4.876 0-3.187 2.4-4.62 5.047-5.011l3.745-.57c.654-.09 1.55-.36 1.55-1.261 0-1.772-1.758-1.862-2.829-1.862-2.08 0-2.437 1.292-2.556 2.158h-4.013c.005-4.736 3.835-5.521 7.075-5.521 3.457 0 6.678 1.42 6.678 5.163v9.662zm-4.336-6.207c-.424.33-1.12.6-2.88.871-1.578.27-3.164.692-3.164 2.434 0 1.471 1.436 1.732 2.254 1.732 1.911 0 3.79-.757 3.79-2.995v-2.042zm27.633 8.35c-4.38 0-8.331-2.668-8.331-8.49s3.95-8.49 8.33-8.49 8.332 2.668 8.332 8.49-3.951 8.49-8.331 8.49zm0-13.402c-3.309 0-3.92 2.85-3.92 4.912 0 2.063.611 4.913 3.92 4.913 3.308 0 3.921-2.85 3.921-4.913 0-2.062-.613-4.912-3.921-4.912zm38.5 11.26c0 1.353.545 1.57.545 1.57h-4.489c-.331-.593-.332-1.215-.323-1.227-.692.916-2.353 1.774-5.176 1.774-3.048 0-5.255-1.742-5.255-4.876 0-3.187 2.4-4.62 5.047-5.011l3.745-.57c.654-.09 1.55-.36 1.55-1.261 0-1.772-1.757-1.862-2.828-1.862-2.08 0-2.438 1.292-2.557 2.158h-4.013c.004-4.736 3.835-5.521 7.075-5.521 3.457 0 6.679 1.42 6.679 5.163v9.662zm-4.337-6.208c-.424.33-1.122.6-2.88.871-1.577.27-3.163.692-3.163 2.434 0 1.471 1.435 1.732 2.253 1.732 1.912 0 3.79-.757 3.79-2.995v-2.042zm10.781 5.043c0 .275.05.522.151.742a1.747 1.747 0 0 0 .99.923c.222.083.454.125.697.125.242 0 .474-.042.696-.125a1.747 1.747 0 0 0 .99-.923c.1-.22.151-.467.151-.742a1.72 1.72 0 0 0-.555-1.3 1.819 1.819 0 0 0-.586-.358 1.938 1.938 0 0 0-.696-.127c-.243 0-.475.043-.696.127a1.82 1.82 0 0 0-.587.36 1.72 1.72 0 0 0-.555 1.298zm.488 0c0-.204.036-.391.106-.562a1.31 1.31 0 0 1 .715-.734c.164-.07.34-.106.529-.106a1.32 1.32 0 0 1 .952.397 1.41 1.41 0 0 1 .397 1.005 1.454 1.454 0 0 1-.397 1.012 1.32 1.32 0 0 1-.952.4c-.188 0-.365-.035-.529-.106a1.292 1.292 0 0 1-.428-.294 1.399 1.399 0 0 1-.287-.447 1.482 1.482 0 0 1-.106-.565zm.637-1.005v2.005h.397v-.856h.249l.488.856h.416l-.536-.875a.841.841 0 0 0 .206-.043.51.51 0 0 0 .167-.096.421.421 0 0 0 .113-.16.618.618 0 0 0 .04-.237c0-.217-.067-.37-.203-.46-.135-.089-.33-.134-.581-.134h-.756zm.397.838v-.527h.335c.045 0 .092.004.141.01.05.006.094.018.134.036.04.017.073.042.098.074a.201.201 0 0 1 .038.13c0 .12-.036.197-.11.229a.713.713 0 0 1-.282.048h-.354z" fill="#134384"/><path d="M14.48 10.874c-.035-.221.3-.94 1.549-1.583.774-.4 4.02-1.668 4.02-1.668 1.364-.554 3.179-1.792 3.158-3.974-.013-1.502-1.03-3.652-3.916-3.632-4.126.028-6.418 3.365-7.89 8.118 0 0-.123.627-.517.64-.221.034-.925-.308-1.56-1.56-.395-.777-1.643-4.03-1.643-4.03C7.136 1.816 5.911-.005 3.727 0 2.226.004.07 1.007.071 3.894c.002 4.125 3.324 6.44 8.067 7.94 0 0 .623.134.633.527.034.222-.31.931-1.562 1.568-.777.396-4.028 1.647-4.028 1.647-1.368.547-3.19 1.775-3.181 3.957.006 1.502 1.012 3.658 3.898 3.653 4.125-.007 6.435-3.332 7.932-8.077 0 0 .143-.624.537-.636.222-.034.943.306 1.583 1.557.397.776 1.655 4.025 1.655 4.025.549 1.366 1.78 3.186 3.964 3.172 1.502-.008 3.654-1.018 3.644-3.905-.015-4.125-3.344-6.43-8.092-7.915 0 0-.628-.139-.64-.533" fill="#E43128"/><path d="M14.755 12.758c-.579-.101-.415-.848.064-.764.966.17 6.43 1.825 7.463 5.212.067.222.01.245-.09.056-2.015-3.814-7.25-4.472-7.437-4.504zm-2.001-4.262c-.099.58-.847.418-.764-.061.167-.966 1.804-6.436 5.188-7.48.221-.068.244-.01.056.09-3.808 2.027-4.448 7.263-4.48 7.451zm-4.246 1.99c.58.1.413.848-.066.762-.965-.173-6.425-1.845-7.447-5.235-.066-.222-.01-.245.09-.056 2.004 3.82 7.236 4.495 7.423 4.528zm1.971 4.255c.102-.58.849-.414.764.065-.172.966-1.838 6.427-5.227 7.453-.222.067-.245.01-.055-.09 3.818-2.008 4.486-7.24 4.518-7.428zm-.903-3.002a1.994 1.994 0 1 1 3.989 0 1.994 1.994 0 0 1-3.99 0zm.62.002a1.374 1.374 0 1 1 2.746 0 1.374 1.374 0 0 1-2.747 0zm.653.002a.722.722 0 1 1 1.445 0 .722.722 0 0 1-1.445 0z" fill="#FEFEFE"/><path d="M26.127 20.116v-.526h.335c.045 0 .092.003.141.01.05.006.095.018.134.035.04.018.073.043.099.074a.201.201 0 0 1 .038.13c0 .12-.037.197-.11.23a.713.713 0 0 1-.283.047h-.354zm-.397-.837v2.005h.397v-.857h.25l.487.857h.417l-.536-.876a.841.841 0 0 0 .205-.043.51.51 0 0 0 .168-.096.421.421 0 0 0 .112-.16.618.618 0 0 0 .041-.237c0-.217-.068-.37-.203-.46-.136-.089-.33-.133-.582-.133h-.756zm-.636 1.005c0-.205.035-.392.105-.563.07-.17.166-.318.287-.442a1.332 1.332 0 0 1 .957-.397 1.32 1.32 0 0 1 .952.397 1.41 1.41 0 0 1 .398 1.005 1.454 1.454 0 0 1-.398 1.012 1.32 1.32 0 0 1-.952.4 1.34 1.34 0 0 1-.529-.106 1.292 1.292 0 0 1-.428-.294 1.399 1.399 0 0 1-.287-.448 1.482 1.482 0 0 1-.105-.564zm-.488 0c0 .274.05.521.15.741a1.747 1.747 0 0 0 .991.924c.222.083.454.124.696.124.243 0 .475-.041.696-.124a1.747 1.747 0 0 0 .99-.923 1.76 1.76 0 0 0 .152-.742 1.72 1.72 0 0 0-.555-1.3 1.819 1.819 0 0 0-.587-.358 1.938 1.938 0 0 0-.696-.127 1.93 1.93 0 0 0-.696.127 1.819 1.819 0 0 0-.586.359 1.72 1.72 0 0 0-.555 1.299z" fill="#E43128"/></g></svg>